<?xml version="1.0" standalone="no"?>
<!DOCTYPE svg PUBLIC "-//W3C//DTD SVG 20010904//EN"
 "http://www.w3.org/TR/2001/REC-SVG-20010904/DTD/svg10.dtd">
<svg version="1.0" xmlns="http://www.w3.org/2000/svg"
 width="200.000000pt" height="200.000000pt" viewBox="0 0 200.000000 200.000000"
 preserveAspectRatio="xMidYMid meet">

<g transform="translate(0.000000,200.000000) scale(0.100000,-0.100000)"
fill="#000000" stroke="none">
<path d="M835 1984 c-106 -11 -239 -36 -320 -59 -291 -85 -417 -247 -482 -625
-21 -119 -23 -458 -5 -575 37 -228 107 -402 201 -496 139 -138 410 -213 771
-213 266 0 464 36 630 116 157 76 247 201 304 420 40 153 51 258 50 463 -1
267 -35 447 -116 615 -89 185 -253 283 -563 336 -88 14 -390 26 -470 18z m469
-129 c128 -23 270 -72 337 -117 75 -50 126 -127 167 -249 52 -159 66 -259 66
-489 0 -232 -14 -333 -67 -490 -62 -182 -138 -258 -319 -318 -160 -53 -258
-66 -488 -66 -228 0 -322 12 -484 64 -113 36 -204 94 -248 158 -100 145 -156
423 -145 717 12 338 94 576 230 669 88 61 260 114 437 136 108 13 409 5 514
-15z"/>
<path d="M433 1250 c-45 -27 -66 -64 -66 -115 0 -133 174 -185 243 -72 23 36
26 100 7 137 -32 63 -122 88 -184 50z"/>
<path d="M1433 1250 c-45 -27 -65 -62 -65 -115 0 -53 20 -88 65 -115 60 -37
143 -17 182 44 9 14 17 45 17 71 0 26 -8 57 -17 71 -23 36 -74 64 -115 64 -19
0 -49 -9 -67 -20z"/>
<path d="M878 781 c-31 -10 -72 -28 -91 -40 -61 -37 -157 -153 -157 -188 0 -5
17 -15 38 -22 20 -8 42 -16 48 -18 6 -2 15 7 21 20 37 81 138 147 238 154 73
6 125 -7 187 -46 40 -26 99 -91 110 -121 4 -11 98 21 98 33 0 18 -34 72 -72
113 -108 117 -272 162 -420 115z"/>
</g>
</svg>
