<?xml version="1.0" standalone="no"?>
<!DOCTYPE svg PUBLIC "-//W3C//DTD SVG 20010904//EN"
 "http://www.w3.org/TR/2001/REC-SVG-20010904/DTD/svg10.dtd">
<svg version="1.0" xmlns="http://www.w3.org/2000/svg"
 width="512.000000pt" height="512.000000pt" viewBox="0 0 512.000000 512.000000"
 preserveAspectRatio="xMidYMid meet">

<g transform="translate(0.000000,512.000000) scale(0.100000,-0.100000)"
fill="#000000" stroke="none">
<path d="M469 4255 c-223 -55 -391 -223 -450 -453 -18 -72 -19 -122 -19 -1242
0 -1129 1 -1169 20 -1244 24 -95 75 -195 135 -263 61 -70 174 -144 266 -174
l74 -24 2065 0 2065 0 74 24 c197 65 348 230 402 439 18 72 19 122 19 1242 0
1129 -1 1169 -20 1244 -52 205 -193 362 -390 434 l-75 27 -2055 2 c-1704 1
-2065 -1 -2111 -12z m4159 -351 c29 -14 67 -44 86 -66 55 -63 66 -111 66 -275
l0 -143 -2220 0 -2220 0 0 143 c0 164 11 212 66 275 19 22 57 52 86 66 l52 26
2016 0 2016 0 52 -26z m152 -1732 c0 -841 2 -811 -66 -890 -19 -22 -57 -52
-86 -66 l-52 -26 -2016 0 -2016 0 -52 26 c-29 14 -67 44 -86 66 -68 79 -66 49
-66 890 l0 758 2220 0 2220 0 0 -758z"/>
<path d="M3664 2334 c-55 -20 -118 -75 -152 -132 -27 -47 -27 -49 -30 -255 -3
-170 -1 -216 13 -256 21 -63 70 -120 136 -156 54 -30 55 -30 246 -33 232 -4
275 5 351 73 27 25 60 66 73 92 23 46 24 57 24 258 0 237 -7 266 -79 338 -77
77 -96 82 -331 84 -165 2 -219 -1 -251 -13z"/>
<path d="M717 1782 c-14 -15 -17 -41 -17 -135 0 -108 1 -117 22 -131 20 -14
84 -16 504 -16 l483 0 21 27 c20 25 21 38 18 134 -2 71 -8 111 -17 122 -12 15
-60 17 -506 17 -464 0 -493 -1 -508 -18z"/>
</g>
</svg>
