<?xml version="1.0" standalone="no"?>
<!DOCTYPE svg PUBLIC "-//W3C//DTD SVG 20010904//EN"
 "http://www.w3.org/TR/2001/REC-SVG-20010904/DTD/svg10.dtd">
<svg version="1.0" xmlns="http://www.w3.org/2000/svg"
 width="512.000000pt" height="512.000000pt" viewBox="0 0 512.000000 512.000000"
 preserveAspectRatio="xMidYMid meet">

<g transform="translate(0.000000,512.000000) scale(0.100000,-0.100000)"
fill="#000000" stroke="none">
<path d="M2945 5113 c-42 -11 -263 -122 -330 -165 -363 -234 -623 -610 -714
-1029 -45 -209 -50 -425 -16 -624 59 -334 203 -618 439 -864 262 -271 581
-433 969 -492 126 -19 428 -6 557 24 223 52 386 122 568 244 244 162 444 395
573 668 43 92 52 119 52 166 0 89 -33 136 -133 188 -116 61 -191 134 -243 239
l-42 86 0 155 c0 146 -2 158 -23 193 -32 52 -68 75 -160 102 -251 75 -421 251
-491 506 -22 80 -58 133 -110 163 -26 16 -51 19 -159 18 -101 -1 -142 3 -190
18 -127 39 -225 128 -300 270 -53 99 -93 130 -173 136 -30 2 -63 1 -74 -2z
m-200 -672 c110 -51 151 -184 89 -289 -65 -112 -242 -124 -327 -23 -135 161
47 400 238 312z m508 -75 c126 -53 116 -229 -15 -268 -31 -9 -45 -8 -83 6
-117 45 -126 196 -15 254 51 26 69 27 113 8z m770 -320 c49 -20 95 -78 102
-130 16 -102 -73 -194 -176 -184 -56 6 -93 28 -127 79 -20 28 -23 44 -20 92 5
67 27 101 84 134 45 26 90 29 137 9z m-1307 -341 c142 -59 191 -224 104 -349
-75 -110 -247 -129 -344 -38 -40 38 -76 118 -76 172 0 89 76 196 155 219 47
14 122 12 161 -4z m553 -150 c48 -24 56 -81 16 -120 -26 -27 -70 -32 -96 -12
-45 34 -46 92 -2 127 31 24 45 25 82 5z m714 -309 c57 -23 117 -111 117 -171
0 -32 -25 -90 -53 -122 -39 -44 -82 -63 -142 -63 -150 0 -235 164 -151 291 46
69 150 99 229 65z m-1244 -421 c78 -40 21 -158 -59 -125 -56 23 -60 102 -6
128 29 14 33 14 65 -3z m603 -135 c96 -27 178 -135 178 -235 0 -127 -77 -226
-202 -255 -180 -44 -346 134 -294 314 40 136 181 214 318 176z"/>
<path d="M1415 3596 c-652 -181 -1163 -725 -1301 -1386 -126 -607 60 -1232
497 -1669 282 -282 634 -459 1039 -522 108 -17 410 -17 515 0 341 55 637 185
890 392 344 281 568 656 649 1088 9 46 15 85 14 85 -2 1 -82 -1 -178 -4 l-175
-5 -13 -60 c-102 -473 -448 -880 -899 -1059 -487 -194 -1035 -117 -1453 204
-455 350 -665 932 -541 1500 63 287 247 598 462 781 150 128 363 250 524 300
39 12 74 25 78 29 9 8 -13 350 -22 349 -3 0 -42 -10 -86 -23z"/>
<path d="M1295 2744 c-80 -44 -124 -115 -125 -202 0 -165 171 -267 320 -192
108 55 149 197 87 303 -42 71 -94 101 -181 105 -51 2 -79 -2 -101 -14z"/>
<path d="M1820 1911 c-80 -25 -167 -109 -194 -188 -45 -130 7 -279 122 -351
209 -133 476 25 460 271 -7 110 -72 206 -173 253 -38 18 -66 24 -120 23 -38 0
-81 -4 -95 -8z"/>
<path d="M852 1814 c-18 -10 -45 -33 -60 -52 -36 -47 -39 -145 -6 -189 37 -49
82 -73 139 -73 164 0 227 204 93 303 -37 28 -122 33 -166 11z"/>
<path d="M2640 1391 c-116 -36 -189 -142 -177 -257 21 -204 265 -292 411 -147
71 69 88 183 42 277 -50 103 -171 159 -276 127z"/>
<path d="M1335 1139 c-84 -24 -149 -118 -149 -214 0 -129 95 -225 224 -225
129 0 223 95 223 225 0 156 -144 260 -298 214z"/>
</g>
</svg>
