<?xml version="1.0" standalone="no"?>
<!DOCTYPE svg PUBLIC "-//W3C//DTD SVG 20010904//EN"
 "http://www.w3.org/TR/2001/REC-SVG-20010904/DTD/svg10.dtd">
<svg version="1.0" xmlns="http://www.w3.org/2000/svg"
 width="512.000000pt" height="512.000000pt" viewBox="0 0 512.000000 512.000000"
 preserveAspectRatio="xMidYMid meet">

<g transform="translate(0.000000,512.000000) scale(0.100000,-0.100000)"
fill="#000000" stroke="none">
<path d="M2495 4156 c-1309 -524 -2394 -960 -2412 -969 -94 -49 -110 -179 -30
-242 31 -25 1772 -875 1792 -875 6 0 694 684 1530 1520 836 836 1515 1520
1510 1520 -6 -1 -1081 -430 -2390 -954z"/>
<path d="M3585 3370 l-1518 -1518 21 -49 c63 -146 836 -1723 857 -1750 45 -58
141 -68 199 -22 15 12 35 38 46 58 26 53 1922 4793 1918 4797 -2 2 -687 -680
-1523 -1516z"/>
</g>
</svg>
