<?xml version="1.0" standalone="no"?>
<!DOCTYPE svg PUBLIC "-//W3C//DTD SVG 20010904//EN"
 "http://www.w3.org/TR/2001/REC-SVG-20010904/DTD/svg10.dtd">
<svg version="1.0" xmlns="http://www.w3.org/2000/svg"
 width="512.000000pt" height="512.000000pt" viewBox="0 0 512.000000 512.000000"
 preserveAspectRatio="xMidYMid meet">

<g transform="translate(0.000000,512.000000) scale(0.100000,-0.100000)"
fill="#000000" stroke="none">
<path d="M2330 4906 c-323 -58 -573 -188 -801 -415 -214 -215 -347 -464 -406
-758 -24 -126 -24 -371 1 -478 73 -315 271 -717 603 -1224 63 -95 115 -178
116 -183 1 -5 -53 -25 -119 -43 -468 -129 -764 -337 -845 -594 -29 -92 -29
-224 0 -309 124 -365 660 -630 1396 -692 155 -13 398 -13 561 0 739 60 1279
325 1405 691 30 86 30 218 0 309 -84 263 -422 495 -881 605 -41 9 -78 21 -83
24 -4 4 20 47 53 95 338 495 571 951 656 1281 26 99 29 126 28 270 0 124 -5
182 -22 261 -65 302 -188 530 -402 745 -209 210 -442 337 -740 404 -102 23
-416 29 -520 11z m427 -391 c426 -81 760 -409 849 -835 26 -124 24 -292 -4
-396 -94 -350 -422 -915 -925 -1596 -60 -82 -113 -148 -118 -148 -10 0 -185
233 -326 435 -238 341 -414 629 -547 896 -105 210 -150 325 -177 454 -23 110
-24 183 -3 306 76 449 398 787 844 883 88 19 308 20 407 1z m-506 -3221 c160
-208 189 -241 236 -260 66 -28 153 -10 206 41 17 17 96 115 175 218 166 217
135 203 337 158 345 -77 596 -210 657 -348 33 -76 -2 -147 -115 -227 -384
-272 -1209 -366 -1862 -211 -346 82 -606 230 -636 363 -32 143 229 318 612
411 144 34 161 38 211 40 37 1 38 -1 179 -185z"/>
<path d="M2390 4007 c-249 -74 -420 -302 -420 -560 0 -175 50 -299 169 -417
123 -123 258 -180 421 -180 204 0 397 107 507 281 113 180 111 446 -5 625 -81
124 -217 221 -359 258 -88 23 -221 20 -313 -7z m277 -393 c15 -11 40 -37 57
-58 38 -47 49 -142 21 -197 -43 -85 -108 -123 -200 -117 -128 8 -206 117 -181
251 8 41 68 114 110 133 46 21 158 14 193 -12z"/>
</g>
</svg>
