<?xml version="1.0" standalone="no"?>
<!DOCTYPE svg PUBLIC "-//W3C//DTD SVG 20010904//EN"
 "http://www.w3.org/TR/2001/REC-SVG-20010904/DTD/svg10.dtd">
<svg version="1.0" xmlns="http://www.w3.org/2000/svg"
 width="512.000000pt" height="512.000000pt" viewBox="0 0 512.000000 512.000000"
 preserveAspectRatio="xMidYMid meet">

<g transform="translate(0.000000,512.000000) scale(0.100000,-0.100000)"
fill="#000000" stroke="none">
<path d="M3150 5114 c-221 -25 -302 -41 -455 -91 -396 -128 -758 -416 -987
-786 -279 -449 -345 -1042 -173 -1552 50 -146 157 -353 247 -478 l42 -58 -176
-176 -176 -176 -35 30 c-43 37 -85 48 -130 34 -22 -8 -211 -190 -634 -613
-648 -650 -640 -641 -664 -772 -50 -269 198 -517 468 -467 130 24 121 16 771
664 423 423 605 612 613 634 14 45 3 87 -34 130 l-30 35 175 175 176 176 90
-61 c307 -210 664 -321 1034 -322 502 0 954 187 1309 542 283 283 462 642 520
1043 17 116 17 394 0 510 -116 802 -742 1438 -1536 1561 -91 14 -351 26 -415
18z m365 -265 c437 -64 837 -319 1087 -694 450 -677 310 -1598 -322 -2108
-479 -386 -1115 -464 -1680 -205 -317 146 -612 441 -758 758 -77 168 -113 294
-137 473 -118 910 550 1725 1470 1791 71 5 257 -3 340 -15z"/>
<path d="M3085 4626 c-290 -75 -531 -204 -722 -389 -199 -191 -315 -399 -367
-655 -20 -96 -34 -286 -25 -332 9 -42 44 -78 90 -91 31 -10 43 -9 75 7 64 32
77 59 85 181 9 132 22 210 53 300 129 377 448 636 926 749 114 27 142 45 161
101 26 79 -40 164 -125 163 -12 -1 -79 -16 -151 -34z"/>
</g>
</svg>
