<?xml version="1.0" standalone="no"?>
<!DOCTYPE svg PUBLIC "-//W3C//DTD SVG 20010904//EN"
 "http://www.w3.org/TR/2001/REC-SVG-20010904/DTD/svg10.dtd">
<svg version="1.0" xmlns="http://www.w3.org/2000/svg"
 width="512.000000pt" height="512.000000pt" viewBox="0 0 512.000000 512.000000"
 preserveAspectRatio="xMidYMid meet">

<g transform="translate(0.000000,512.000000) scale(0.100000,-0.100000)"
fill="#000000" stroke="none">
<path d="M2079 5107 c-99 -28 -174 -91 -222 -187 l-22 -45 -5 -790 -5 -790
-790 -5 -790 -5 -46 -23 c-74 -36 -125 -87 -161 -160 l-33 -67 0 -475 0 -475
33 -67 c36 -73 87 -124 161 -160 l46 -23 790 -5 790 -5 5 -790 5 -790 23 -46
c36 -74 87 -125 160 -161 l67 -33 475 0 475 0 67 33 c73 36 124 87 160 161
l23 46 5 790 5 790 790 5 790 5 46 23 c74 36 125 87 161 160 l33 67 0 475 0
475 -33 67 c-36 73 -87 124 -161 160 l-46 23 -790 5 -790 5 -5 790 -5 790 -23
46 c-36 74 -87 125 -160 161 l-67 33 -455 2 c-340 2 -467 -1 -501 -10z"/>
</g>
</svg>
