<?xml version="1.0" standalone="no"?>
<!DOCTYPE svg PUBLIC "-//W3C//DTD SVG 20010904//EN"
 "http://www.w3.org/TR/2001/REC-SVG-20010904/DTD/svg10.dtd">
<svg version="1.0" xmlns="http://www.w3.org/2000/svg"
 width="1178.000000pt" height="980.000000pt" viewBox="0 0 1178.000000 980.000000"
 preserveAspectRatio="xMidYMid meet">

<g transform="translate(0.000000,980.000000) scale(0.100000,-0.100000)"
fill="#000000" stroke="none">
<path d="M1043 9785 c-273 -43 -493 -154 -684 -344 -191 -191 -304 -417 -344
-687 -14 -98 -15 -417 -12 -3094 2 -2833 3 -2989 21 -3060 61 -256 166 -449
336 -620 130 -131 291 -231 468 -290 193 -65 -107 -60 3977 -60 l3713 0 789
-790 c842 -844 819 -823 932 -837 109 -13 234 62 282 169 l24 53 3 702 3 703
68 0 c139 0 344 51 483 121 371 185 616 538 668 959 8 70 10 866 8 3065 l-3
2970 -22 90 c-104 442 -395 763 -818 904 -198 66 186 61 -5056 60 -3825 -1
-4770 -4 -4836 -14z m9630 -275 c115 -13 251 -58 357 -117 119 -67 276 -224
343 -343 61 -109 102 -239 117 -365 8 -73 10 -901 8 -3040 l-3 -2940 -26 -95
c-33 -117 -64 -189 -122 -277 -120 -186 -304 -323 -522 -389 -84 -26 -104 -28
-322 -32 l-233 -4 0 -809 c0 -445 -3 -809 -8 -809 -4 0 -371 364 -817 810
l-810 810 -3795 2 -3795 3 -88 28 c-361 113 -609 397 -663 759 -12 84 -14 507
-11 3060 l2 2963 23 84 c57 215 191 409 367 537 109 79 286 148 424 164 103
12 9469 12 9574 0z"/>
<path d="M1759 7976 c-122 -44 -191 -138 -191 -261 -1 -116 70 -220 178 -261
48 -19 141 -19 4149 -19 l4100 0 50 23 c107 49 165 138 165 255 0 110 -47 190
-142 243 l-53 29 -4110 2 c-3344 2 -4117 0 -4146 -11z"/>
<path d="M1768 6646 c-49 -13 -63 -21 -116 -70 -112 -102 -115 -283 -7 -391
21 -21 59 -47 84 -59 l46 -21 4115 0 4115 0 46 21 c53 25 110 80 135 132 23
49 30 151 13 210 -9 33 -29 63 -68 103 -97 99 382 89 -4240 88 -3251 0 -4085
-3 -4123 -13z"/>
<path d="M1799 5320 c-231 -39 -314 -333 -137 -484 84 -72 -175 -66 2968 -64
l2835 3 40 22 c48 26 106 85 130 132 23 46 31 140 15 194 -19 69 -76 137 -145
172 l-59 30 -2800 1 c-1541 1 -2822 -2 -2847 -6z"/>
<path d="M1744 3974 c-224 -80 -237 -407 -19 -510 l50 -24 1560 0 1560 0 50
24 c104 48 175 170 160 274 -16 110 -81 198 -172 232 -53 20 -79 20 -1601 19
-1329 0 -1553 -3 -1588 -15z"/>
</g>
</svg>
