<?xml version="1.0" standalone="no"?>
<!DOCTYPE svg PUBLIC "-//W3C//DTD SVG 20010904//EN"
 "http://www.w3.org/TR/2001/REC-SVG-20010904/DTD/svg10.dtd">
<svg version="1.0" xmlns="http://www.w3.org/2000/svg"
 width="980.000000pt" height="714.000000pt" viewBox="0 0 980.000000 714.000000"
 preserveAspectRatio="xMidYMid meet">

<g transform="translate(0.000000,714.000000) scale(0.100000,-0.100000)"
fill="#000000" stroke="none">
<path d="M8733 7115 c-97 -22 -200 -66 -293 -125 -76 -48 -335 -304 -2483
-2449 l-2397 -2396 -1068 1066 c-695 694 -1087 1079 -1125 1103 -353 228 -784
183 -1087 -114 -133 -130 -203 -247 -252 -417 -32 -112 -32 -314 0 -426 30
-106 71 -193 131 -279 36 -52 461 -483 1468 -1489 1215 -1214 1429 -1423 1493
-1462 153 -93 274 -122 479 -114 191 7 296 40 443 137 43 29 910 888 2781
2759 1495 1494 2742 2745 2772 2781 140 170 217 402 201 604 -16 214 -97 392
-251 555 -115 121 -255 208 -407 252 -95 27 -313 35 -405 14z"/>
</g>
</svg>
