<?xml version="1.0" standalone="no"?>
<!DOCTYPE svg PUBLIC "-//W3C//DTD SVG 20010904//EN"
 "http://www.w3.org/TR/2001/REC-SVG-20010904/DTD/svg10.dtd">
<svg version="1.0" xmlns="http://www.w3.org/2000/svg"
 width="512.000000pt" height="512.000000pt" viewBox="0 0 512.000000 512.000000"
 preserveAspectRatio="xMidYMid meet">

<g transform="translate(0.000000,512.000000) scale(0.100000,-0.100000)"
fill="#000000" stroke="none">
<path d="M2330 5110 c-494 -48 -950 -230 -1350 -538 -195 -150 -448 -432 -594
-662 -63 -99 -186 -351 -230 -471 -51 -139 -103 -344 -128 -504 -31 -200 -31
-550 0 -750 43 -273 114 -500 237 -750 132 -269 269 -460 489 -681 221 -220
412 -357 681 -489 247 -121 469 -192 745 -237 195 -31 565 -31 760 0 276 45
498 116 745 237 269 132 460 269 681 489 220 221 357 412 489 681 123 250 194
477 237 750 31 200 31 550 0 750 -43 273 -114 500 -237 750 -132 269 -269 460
-489 681 -221 220 -412 357 -681 489 -246 121 -474 193 -740 235 -147 23 -475
34 -615 20z m555 -560 c424 -72 798 -265 1099 -566 302 -302 492 -671 567
-1103 32 -179 32 -463 0 -642 -75 -432 -265 -801 -567 -1103 -302 -302 -671
-492 -1103 -567 -179 -32 -463 -32 -642 0 -432 75 -801 265 -1103 567 -302
302 -492 671 -567 1103 -32 179 -32 463 0 642 47 270 140 521 271 729 344 549
893 892 1533 960 125 13 375 3 512 -20z"/>
<path d="M2483 4160 c-73 -11 -174 -61 -232 -115 -285 -267 -143 -734 242
-795 273 -43 527 176 527 455 0 225 -171 424 -392 455 -70 11 -72 11 -145 0z"/>
<path d="M2230 2788 c-33 -17 -51 -35 -67 -68 l-23 -44 0 -796 0 -796 23 -44
c16 -33 34 -51 67 -68 43 -21 54 -22 330 -22 276 0 287 1 330 23 33 16 51 34
68 67 l22 44 0 796 0 796 -22 44 c-17 33 -35 51 -68 68 -43 21 -54 22 -330 22
-276 0 -287 -1 -330 -22z"/>
</g>
</svg>
