<?xml version="1.0" standalone="no"?>
<!DOCTYPE svg PUBLIC "-//W3C//DTD SVG 20010904//EN"
 "http://www.w3.org/TR/2001/REC-SVG-20010904/DTD/svg10.dtd">
<svg version="1.0" xmlns="http://www.w3.org/2000/svg"
 width="1200.000000pt" height="1200.000000pt" viewBox="0 0 1200.000000 1200.000000"
 preserveAspectRatio="xMidYMid meet">

<g transform="translate(0.000000,1200.000000) scale(0.100000,-0.100000)"
fill="#000000" stroke="none">
<path d="M1745 11034 c-11 -2 -45 -9 -75 -15 -125 -24 -272 -96 -384 -187
-139 -114 -250 -290 -298 -472 l-23 -85 0 -4285 0 -4285 28 -89 c100 -320 317
-532 645 -633 54 -17 219 -18 2702 -20 2933 -4 2723 -8 2897 62 288 116 510
394 553 693 13 92 13 2341 0 2413 -32 174 -181 340 -357 400 -97 33 -250 34
-345 1 -130 -45 -253 -153 -312 -274 -58 -120 -56 -82 -56 -1195 l0 -1023
-2340 0 -2340 0 0 3960 0 3960 2340 0 2339 0 3 -1047 3 -1048 27 -69 c102
-263 367 -404 637 -341 193 46 365 224 401 415 6 33 10 477 10 1205 0 1216 0
1216 -45 1350 -105 312 -390 553 -715 605 -62 9 -5246 13 -5295 4z"/>
<path d="M9136 7784 c-61 -19 -111 -51 -157 -100 -96 -105 -99 -121 -99 -581
l0 -383 -1327 -2 -1328 -3 -70 -23 c-127 -43 -204 -90 -295 -182 -96 -96 -148
-178 -187 -295 -23 -69 -27 -97 -27 -210 -1 -110 3 -142 22 -205 41 -129 88
-206 187 -306 118 -118 225 -175 379 -203 41 -8 476 -11 1353 -11 l1293 0 0
-384 c0 -358 1 -388 20 -450 26 -83 104 -172 188 -213 50 -25 68 -28 152 -28
169 0 106 -53 976 818 870 870 819 810 819 977 0 167 48 109 -794 953 -405
406 -758 754 -784 774 -90 66 -216 89 -321 57z"/>
</g>
</svg>
