<?xml version="1.0" standalone="no"?>
<!DOCTYPE svg PUBLIC "-//W3C//DTD SVG 20010904//EN"
 "http://www.w3.org/TR/2001/REC-SVG-20010904/DTD/svg10.dtd">
<svg version="1.0" xmlns="http://www.w3.org/2000/svg"
 width="512.000000pt" height="512.000000pt" viewBox="0 0 512.000000 512.000000"
 preserveAspectRatio="xMidYMid meet">

<g transform="translate(0.000000,512.000000) scale(0.100000,-0.100000)"
fill="#000000" stroke="none">
<path d="M1530 5105 c-158 -33 -268 -92 -386 -210 -75 -75 -98 -106 -137 -184
-26 -51 -47 -99 -47 -107 0 -11 -29 -14 -153 -14 -84 0 -180 -5 -213 -11 -190
-35 -339 -194 -364 -389 -12 -98 -12 -833 0 -929 13 -97 55 -186 121 -256 106
-112 202 -145 427 -145 l142 0 0 -825 0 -826 25 -24 c31 -32 69 -32 100 0 l25
24 0 826 0 825 63 0 c36 0 68 -5 75 -12 9 -9 12 -262 12 -1078 0 -1159 -2
-1118 56 -1232 33 -66 116 -149 182 -182 115 -58 67 -56 1293 -56 709 0 1146
4 1180 10 132 24 260 127 322 257 l32 68 3 1100 2 1101 75 74 75 75 -2 -1185
-3 -1185 -22 -58 c-68 -179 -212 -318 -393 -380 l-65 -22 -1167 -3 c-1299 -3
-1244 -5 -1387 65 -105 52 -212 159 -264 264 -51 103 -67 187 -67 347 0 128
-1 134 -25 157 -31 32 -69 32 -102 -1 l-25 -26 5 -171 c5 -195 19 -253 90
-392 31 -61 63 -102 132 -170 99 -100 189 -154 325 -197 l75 -23 1210 0 c1359
0 1255 -6 1421 76 193 95 341 277 395 487 18 72 19 123 19 1320 l0 1246 85 87
c92 94 101 116 64 163 -14 18 -30 26 -52 26 -29 0 -71 -39 -407 -375 -206
-206 -380 -375 -385 -375 -17 0 -750 741 -778 787 -88 141 -90 345 -3 482 103
163 305 244 489 196 80 -21 142 -55 210 -114 35 -31 68 -51 82 -51 14 0 47 20
82 51 158 139 350 167 528 76 150 -76 237 -227 236 -411 0 -48 4 -97 10 -108
25 -47 105 -42 128 8 16 36 14 196 -5 268 -25 96 -81 193 -155 268 -37 36 -81
73 -98 82 l-31 17 0 133 c0 154 -19 244 -73 352 -78 154 -194 271 -341 343
-165 81 -57 75 -1391 77 -962 2 -1202 0 -1255 -11z m2490 -162 c180 -61 330
-206 390 -376 28 -78 42 -301 19 -292 -8 3 -41 8 -74 13 l-60 7 -6 96 c-4 78
-11 107 -37 162 -37 79 -115 166 -187 207 -109 62 -58 60 -1302 60 -800 0
-1148 -3 -1185 -11 -103 -22 -209 -90 -269 -174 l-32 -45 -79 0 c-51 0 -78 4
-78 11 0 22 61 118 107 169 52 58 139 120 210 151 111 48 93 48 1343 46 l1175
-2 65 -22z m-44 -305 c64 -34 128 -105 148 -165 9 -27 16 -80 16 -123 l0 -77
-58 -21 c-31 -12 -87 -42 -124 -66 l-67 -45 -37 30 c-189 150 -488 156 -697
13 -168 -115 -257 -287 -257 -495 0 -111 16 -177 67 -279 34 -70 67 -105 464
-504 406 -409 429 -430 463 -430 33 0 47 10 141 104 l105 105 0 -996 c0 -1112
4 -1047 -71 -1133 -22 -25 -65 -57 -97 -73 l-57 -28 -1160 0 -1160 0 -46 21
c-74 34 -141 109 -163 182 l-7 22 963 0 963 0 50 24 c93 43 142 130 132 235
l-5 58 54 23 c68 28 129 94 149 163 19 65 19 100 -4 165 l-19 54 45 41 c67 62
88 107 88 197 0 90 -21 135 -88 197 l-45 41 19 54 c22 65 23 100 4 164 -19 65
-76 131 -139 160 -49 23 -60 24 -302 24 -138 0 -253 2 -256 5 -3 3 15 103 39
223 62 310 66 340 54 409 -30 158 -154 290 -292 309 -96 13 -215 -49 -259
-136 -10 -20 -51 -176 -90 -346 -39 -171 -81 -329 -93 -354 -25 -49 -69 -84
-126 -100 -21 -6 -201 -10 -443 -10 l-408 0 0 202 0 202 123 -121 c101 -100
130 -123 167 -133 107 -29 219 14 275 104 29 48 30 54 33 188 l4 138 62 0
c213 0 401 140 451 337 14 53 15 132 13 555 l-3 493 -37 78 c-65 136 -184 230
-327 257 -30 5 -191 10 -359 10 l-305 0 28 22 c16 12 51 30 79 40 48 16 125
17 1201 15 l1150 -2 51 -27z m-1801 -227 c71 -35 128 -97 154 -166 21 -57 22
-66 19 -539 -3 -477 -3 -481 -26 -523 -35 -66 -79 -110 -140 -140 -51 -25 -71
-28 -189 -33 -109 -4 -135 -8 -150 -23 -16 -15 -18 -41 -21 -192 l-3 -174 -30
-26 c-63 -52 -70 -48 -311 193 l-219 217 -327 5 c-315 5 -329 6 -377 28 -99
46 -158 126 -175 239 -8 48 -10 215 -8 495 4 373 6 428 22 469 21 56 73 119
123 150 77 48 82 48 868 46 l740 -2 50 -24z m634 -1345 c48 -25 99 -91 117
-152 l16 -57 -61 -306 c-33 -168 -61 -322 -61 -342 0 -24 7 -42 21 -55 19 -18
44 -19 328 -24 222 -4 312 -8 328 -18 27 -15 53 -62 53 -95 0 -43 -41 -91 -90
-105 -76 -22 -89 -30 -96 -57 -18 -71 29 -105 146 -105 63 0 73 -3 102 -29 29
-26 33 -35 33 -81 0 -46 -4 -55 -33 -81 -29 -26 -39 -29 -102 -29 -117 0 -164
-34 -146 -105 7 -27 20 -35 96 -57 31 -9 51 -23 67 -47 27 -40 29 -71 8 -111
-25 -49 -60 -60 -185 -60 -110 0 -112 0 -141 -29 -16 -16 -29 -38 -29 -49 0
-34 36 -69 79 -76 74 -12 106 -92 56 -141 l-24 -25 -521 0 -520 0 0 655 c0
616 1 656 18 661 92 28 178 99 216 178 15 30 55 182 97 366 39 173 78 325 86
338 15 24 65 51 96 52 10 0 30 -6 46 -14z m-709 -1586 l0 -650 -365 0 -365 0
0 650 0 650 365 0 365 0 0 -650z"/>
<path d="M627 4219 c-46 -27 -41 -105 9 -128 17 -8 167 -11 495 -11 l470 0 24
25 c32 31 33 74 2 103 -23 22 -24 22 -503 22 -316 -1 -485 -4 -497 -11z"/>
<path d="M627 3889 c-46 -27 -41 -105 9 -128 17 -8 167 -11 495 -11 l470 0 24
25 c32 31 33 74 2 103 -23 22 -24 22 -503 22 -316 -1 -485 -4 -497 -11z"/>
<path d="M619 3552 c-33 -27 -30 -78 5 -109 l28 -24 480 3 480 3 19 24 c26 32
24 73 -4 99 -23 22 -24 22 -504 22 -452 0 -482 -1 -504 -18z"/>
</g>
</svg>
