<?xml version="1.0" standalone="no"?>
<!DOCTYPE svg PUBLIC "-//W3C//DTD SVG 20010904//EN"
 "http://www.w3.org/TR/2001/REC-SVG-20010904/DTD/svg10.dtd">
<svg version="1.0" xmlns="http://www.w3.org/2000/svg"
 width="512.000000pt" height="512.000000pt" viewBox="0 0 512.000000 512.000000"
 preserveAspectRatio="xMidYMid meet">

<g transform="translate(0.000000,512.000000) scale(0.100000,-0.100000)"
fill="#000000" stroke="none">
<path d="M2486 5098 c-78 -45 -81 -58 -84 -359 l-3 -266 -94 -16 c-537 -95
-991 -488 -1160 -1004 -64 -197 -67 -225 -75 -758 -7 -444 -10 -499 -29 -586
-30 -136 -65 -238 -126 -359 -74 -147 -147 -244 -296 -395 -161 -164 -183
-206 -184 -340 0 -80 3 -97 31 -155 39 -83 101 -145 184 -184 l65 -31 532 -3
531 -3 22 -72 c67 -219 217 -391 433 -492 116 -55 184 -69 332 -69 153 0 217
15 350 79 198 96 343 266 411 480 l22 70 534 5 533 5 57 27 c157 73 247 238
218 400 -19 102 -51 151 -189 287 -220 219 -347 446 -417 746 -13 57 -18 163
-24 555 -8 544 -13 588 -81 795 -84 253 -229 473 -431 651 -213 190 -502 323
-775 359 l-53 7 0 267 c0 261 -1 269 -22 301 -53 77 -139 100 -212 58z m334
-967 c224 -51 397 -147 566 -315 143 -142 232 -284 292 -466 50 -150 54 -188
61 -700 7 -442 10 -495 30 -592 74 -365 249 -682 520 -940 50 -48 91 -94 91
-103 0 -8 -9 -24 -20 -35 -20 -20 -33 -20 -1797 -20 -1639 0 -1778 1 -1795 17
-33 30 -22 57 51 122 254 226 455 574 529 921 35 161 42 275 42 667 0 282 4
403 15 476 75 500 472 900 973 982 115 19 328 12 442 -14z m190 -3503 c0 -27
-63 -120 -114 -171 -179 -175 -458 -181 -652 -13 -41 35 -99 115 -122 169
l-12 27 450 0 c353 0 450 -3 450 -12z"/>
</g>
</svg>
