<?xml version="1.0" standalone="no"?>
<!DOCTYPE svg PUBLIC "-//W3C//DTD SVG 20010904//EN"
 "http://www.w3.org/TR/2001/REC-SVG-20010904/DTD/svg10.dtd">
<svg version="1.0" xmlns="http://www.w3.org/2000/svg"
 width="320.000000pt" height="320.000000pt" viewBox="0 0 320.000000 320.000000"
 preserveAspectRatio="xMidYMid meet">

<g transform="translate(0.000000,320.000000) scale(0.100000,-0.100000)"
fill="#000000" stroke="none">
<path d="M758 2871 c-72 -29 -124 -75 -155 -139 -24 -49 -28 -69 -28 -142 0
-100 21 -155 80 -215 60 -59 115 -80 215 -80 65 0 96 5 131 21 107 50 160 130
167 255 8 133 -44 231 -152 286 -69 36 -189 42 -258 14z"/>
<path d="M1485 2870 c-68 -26 -115 -68 -150 -131 -27 -49 -30 -62 -30 -149 0
-88 2 -99 31 -150 70 -124 216 -178 362 -135 69 21 129 69 166 135 29 51 31
62 31 150 0 87 -3 100 -30 149 -16 29 -45 66 -65 82 -80 67 -214 87 -315 49z"/>
<path d="M2240 2881 c-142 -44 -217 -156 -208 -310 7 -125 60 -205 167 -255
35 -16 66 -21 131 -21 100 0 155 21 215 80 59 60 80 115 80 215 0 73 -4 93
-28 142 -49 99 -151 159 -270 157 -34 0 -73 -4 -87 -8z"/>
<path d="M495 2161 c-40 -24 -71 -60 -84 -94 -17 -45 -15 -719 3 -760 18 -44
77 -94 126 -107 l40 -11 0 -375 c0 -414 0 -416 63 -471 53 -46 91 -53 295 -53
l182 0 0 405 0 404 -40 11 c-49 13 -108 63 -126 107 -11 26 -14 129 -14 498
l0 465 -207 0 c-185 0 -211 -2 -238 -19z"/>
<path d="M1155 2161 c-40 -24 -71 -60 -84 -94 -17 -45 -15 -719 3 -760 18 -44
77 -94 125 -107 l40 -11 3 -388 3 -388 25 -36 c13 -20 43 -46 65 -59 38 -22
48 -23 265 -23 217 0 227 1 265 23 22 13 52 39 65 59 l25 36 3 388 3 388 40
11 c48 13 107 63 125 107 18 41 20 715 3 760 -13 34 -55 80 -91 99 -22 11
-104 14 -440 14 -385 0 -415 -1 -443 -19z"/>
<path d="M2260 1715 c0 -369 -3 -472 -14 -498 -18 -44 -77 -94 -126 -107 l-40
-11 0 -405 0 -405 203 3 c189 3 204 4 242 26 22 13 52 39 65 59 l25 37 3 388
3 388 27 6 c47 11 97 44 122 81 l25 36 3 351 c2 193 0 366 -3 384 -7 37 -55
96 -96 118 -22 11 -74 14 -234 14 l-205 0 0 -465z"/>
</g>
</svg>
