<?xml version="1.0" standalone="no"?>
<!DOCTYPE svg PUBLIC "-//W3C//DTD SVG 20010904//EN"
 "http://www.w3.org/TR/2001/REC-SVG-20010904/DTD/svg10.dtd">
<svg version="1.0" xmlns="http://www.w3.org/2000/svg"
 width="512.000000pt" height="512.000000pt" viewBox="0 0 512.000000 512.000000"
 preserveAspectRatio="xMidYMid meet">

<g transform="translate(0.000000,512.000000) scale(0.100000,-0.100000)"
fill="#000000" stroke="none">
<path d="M2402 3950 c-300 -81 -492 -329 -492 -634 0 -184 57 -323 185 -452
137 -138 277 -198 465 -198 81 0 122 5 180 23 236 71 415 265 460 499 17 86 8
249 -19 332 -43 136 -156 279 -278 353 -145 88 -347 119 -501 77z"/>
<path d="M800 3663 c-271 -45 -457 -317 -396 -577 53 -226 241 -376 472 -376
131 0 239 45 334 140 94 94 140 205 140 339 0 133 -52 253 -151 348 -99 96
-265 148 -399 126z"/>
<path d="M4130 3652 c-307 -86 -448 -409 -304 -695 30 -59 129 -159 186 -188
83 -42 148 -59 232 -59 231 0 419 150 472 376 55 234 -86 477 -322 558 -76 26
-187 29 -264 8z"/>
<path d="M740 2369 c-299 -46 -574 -267 -681 -549 -25 -67 -59 -221 -59 -272
l0 -38 544 0 543 0 31 98 c55 173 147 341 269 494 l53 67 -47 36 c-69 53 -216
122 -308 146 -94 23 -253 32 -345 18z"/>
<path d="M4103 2366 c-39 -8 -95 -22 -125 -31 -67 -22 -208 -95 -259 -136
l-39 -30 54 -67 c121 -153 213 -321 268 -494 l31 -98 543 0 544 0 0 38 c0 51
-34 205 -59 272 -96 253 -331 462 -597 530 -103 27 -267 34 -361 16z"/>
<path d="M2323 2309 c-353 -74 -639 -289 -812 -609 -74 -137 -120 -310 -134
-497 l-4 -53 1187 0 1187 0 -4 53 c-14 187 -60 360 -134 497 -174 323 -462
537 -818 610 -133 27 -338 27 -468 -1z"/>
</g>
</svg>
