<?xml version="1.0" standalone="no"?>
<!DOCTYPE svg PUBLIC "-//W3C//DTD SVG 20010904//EN"
 "http://www.w3.org/TR/2001/REC-SVG-20010904/DTD/svg10.dtd">
<svg version="1.0" xmlns="http://www.w3.org/2000/svg"
 width="24.000000pt" height="24.000000pt" viewBox="0 0 24.000000 24.000000"
 preserveAspectRatio="xMidYMid meet">

<g transform="translate(0.000000,24.000000) scale(0.100000,-0.100000)"
fill="#000000" stroke="none">
<path d="M45 200 c-62 -69 92 -217 158 -151 l21 21 -26 27 c-22 22 -30 24 -42
14 -12 -10 -19 -8 -36 9 -17 17 -19 24 -9 36 10 12 7 19 -11 39 -28 30 -32 30
-55 5z m40 -48 c0 -40 27 -67 68 -67 36 0 46 -28 12 -33 -49 -6 -128 81 -111
123 10 27 31 11 31 -23z"/>
</g>
</svg>
