<?xml version="1.0" standalone="no"?>
<!DOCTYPE svg PUBLIC "-//W3C//DTD SVG 20010904//EN"
 "http://www.w3.org/TR/2001/REC-SVG-20010904/DTD/svg10.dtd">
<svg version="1.0" xmlns="http://www.w3.org/2000/svg"
 width="791.000000pt" height="747.000000pt" viewBox="0 0 791.000000 747.000000"
 preserveAspectRatio="xMidYMid meet">

<g transform="translate(0.000000,747.000000) scale(0.100000,-0.100000)"
fill="#000000" stroke="none">
<path d="M3380 7463 c-652 -19 -1599 -82 -2030 -134 -354 -42 -735 -113 -968
-179 -135 -38 -280 -109 -338 -164 l-44 -43 0 -578 0 -579 48 -45 c181 -174
827 -310 1882 -396 766 -62 1193 -79 2025 -79 687 0 1118 13 1630 49 947 67
1438 132 1890 250 214 55 386 141 424 212 8 16 11 182 11 592 l0 571 -34 38
c-63 69 -248 152 -443 197 -207 48 -445 96 -573 114 -561 80 -1282 135 -2250
171 -232 9 -987 11 -1230 3z m1375 -633 c893 -27 1388 -66 2055 -161 160 -23
502 -90 565 -111 l40 -13 3 -177 c2 -161 1 -178 -15 -186 -65 -35 -640 -136
-1003 -177 -1003 -114 -2412 -145 -3800 -85 -374 17 -1059 73 -1220 100 -30 5
-136 21 -236 35 -99 14 -260 41 -357 60 -98 19 -186 35 -197 35 -11 0 -38 7
-60 16 l-40 16 0 179 c0 160 2 179 18 188 51 27 437 99 787 146 553 73 1065
111 1815 134 381 12 1281 12 1645 1z"/>
<path d="M3300 4829 c-943 -23 -2083 -121 -2540 -219 -242 -52 -294 -65 -400
-97 -172 -52 -323 -134 -349 -191 -7 -15 -11 -210 -11 -592 l0 -568 26 -32
c58 -68 188 -132 375 -184 381 -106 809 -170 1529 -230 1093 -91 2357 -106
3470 -41 1015 60 1668 144 2127 275 136 38 281 109 339 164 l44 43 0 576 0
577 -35 39 c-42 46 -163 111 -280 151 -170 57 -540 134 -845 174 -941 126
-2242 184 -3450 155z m1460 -629 c773 -24 1356 -64 1755 -120 77 -11 208 -29
290 -41 145 -20 500 -88 578 -109 l37 -11 -2 -182 -3 -182 -40 -13 c-156 -51
-799 -151 -1265 -196 -1172 -114 -3146 -114 -4310 0 -165 16 -570 65 -735 90
-151 22 -504 93 -542 109 l-33 14 0 180 0 179 127 30 c142 34 291 61 493 91
635 94 1126 133 2000 160 369 12 1294 12 1650 1z"/>
<path d="M3295 2200 c-888 -25 -1648 -84 -2284 -176 -342 -49 -721 -147 -860
-221 -64 -34 -128 -84 -140 -111 -7 -15 -11 -210 -11 -594 l0 -571 43 -41 c53
-51 175 -116 284 -150 96 -30 447 -108 609 -136 511 -88 1255 -146 2414 -190
302 -11 910 -12 1205 0 1120 43 1711 87 2264 166 204 29 557 101 709 144 135
38 280 109 338 164 l44 43 0 578 0 579 -48 46 c-104 100 -361 186 -787 264
-473 87 -1373 169 -2150 196 -409 15 -1286 20 -1630 10z m1470 -630 c844 -26
1389 -66 1910 -141 253 -36 611 -102 708 -129 l37 -11 -2 -182 -3 -182 -40
-13 c-121 -40 -663 -130 -975 -162 -58 -6 -112 -13 -120 -15 -26 -7 -326 -34
-545 -49 -1085 -76 -2599 -74 -3630 5 -143 11 -296 24 -340 29 -411 47 -533
62 -680 84 -182 27 -485 86 -550 108 l-40 13 -3 181 -2 181 37 11 c21 6 92 22
158 36 615 130 1376 204 2415 235 383 12 1303 12 1665 1z"/>
</g>
</svg>
